<?xml version="1.0" encoding="utf-8"?>
<!-- Uploaded to: SVG Repo, www.svgrepo.com, Generator: SVG Repo Mixer Tools -->
<svg width="800px" height="800px" viewBox="0 0 1024 1024" class="icon"  version="1.1" xmlns="http://www.w3.org/2000/svg"><path d="M673 366.8c-4.8 3.5-10.5 4.4-16.7 4.4s-10.9 1.3-15.6-2.2c-12.7 6.6-25.8 20.4-25.8 36.4h76.2c0-16-5.4-32-18.1-38.6z" fill="#F9C0C0" /><path d="M652.6 342.1m-17 0a17 17 0 1 0 34 0 17 17 0 1 0-34 0Z" fill="#F9C0C0" /><path d="M742.8 893.2H281.2c-8.8 0-16-7.2-16-16V238.9c0-8.8 7.2-16 16-16h461.7c8.8 0 16 7.2 16 16v638.3c-0.1 8.8-7.2 16-16.1 16zM281.2 230.9c-4.4 0-8 3.6-8 8v638.3c0 4.4 3.6 8 8 8h461.7c4.4 0 8-3.6 8-8V238.9c0-4.4-3.6-8-8-8H281.2z" fill="#CE0202" /><path d="M754.8 958.5H269.2c-40.7 0-73.7-33.1-73.7-73.7V231.3c0-40.7 33.1-73.7 73.7-73.7h137.9c2.4-24.8 13.5-47.8 31.5-65.3 19.8-19.3 46-29.9 73.7-29.9 27.7 0 53.8 10.6 73.7 29.9 18 17.5 29.1 40.5 31.5 65.3h137.4c40.7 0 73.7 33.1 73.7 73.7v653.5c0 40.6-33.1 73.7-73.8 73.7zM269.2 172.6c-32.4 0-58.7 26.3-58.7 58.7v653.5c0 32.4 26.3 58.7 58.7 58.7h485.7c32.4 0 58.7-26.3 58.7-58.7V231.3c0-32.4-26.3-58.7-58.7-58.7H603.2l-0.2-7.3c-0.7-23.6-10.5-45.8-27.5-62.3S536 77.3 512.3 77.3 466.1 86.5 449 103c-17 16.5-26.7 38.6-27.5 62.3l-0.2 7.3H269.2z" fill="#999999" /><path d="M514.5 153.3c-12.6 0-22.8-10.2-22.8-22.8s10.2-22.8 22.8-22.8 22.8 10.2 22.8 22.8-10.3 22.8-22.8 22.8z m0-37.5c-8.1 0-14.8 6.6-14.8 14.8s6.6 14.8 14.8 14.8c8.2 0 14.8-6.6 14.8-14.8s-6.7-14.8-14.8-14.8z" fill="#CE0202" /><path d="M637.2 256H386.3c-8.8 0-16-7.2-16-16v-58.8c0-8.8 7.2-16 16-16h250.9c8.8 0 16 7.2 16 16V240c0 8.8-7.2 16-16 16z m-250.9-82.8c-4.4 0-8 3.6-8 8V240c0 4.4 3.6 8 8 8h250.9c4.4 0 8-3.6 8-8v-58.8c0-4.4-3.6-8-8-8H386.3zM649 362.5c-13.8 0-25.1-11.3-25.1-25.1s11.3-25.1 25.1-25.1 25.1 11.3 25.1 25.1-11.2 25.1-25.1 25.1z m0-42.2c-9.4 0-17.1 7.7-17.1 17.1s7.7 17.1 17.1 17.1 17.1-7.7 17.1-17.1-7.6-17.1-17.1-17.1z" fill="#999999" /><path d="M697.2 409.4h-96.3v-4c0-18.5 10.4-35.1 27-43.3l2.1-1 1.9 1.3c5.1 3.5 11 5.3 17.1 5.3s12.1-1.8 17.1-5.3l1.9-1.3 2.1 1c16.7 8.2 27 24.7 27 43.3v4h0.1z m-88.1-8H689c-1.3-13.1-8.8-24.6-20.4-31.1-5.9 3.5-12.6 5.4-19.6 5.4-6.9 0-13.7-1.9-19.6-5.4-11.5 6.5-19 18-20.3 31.1zM354.4 320.8h103.8v8H354.4zM354.4 395.9h178.8v8H354.4zM354.4 471h60.7v8h-60.7zM354.4 546h338.9v8H354.4zM354.4 621.1h273.8v8H354.4zM354.4 696.2h89.4v8h-89.4zM619.3 812.1h74v8h-74z" fill="#999999" /></svg>