<?xml version="1.0" encoding="utf-8"?>
<!-- Uploaded to: SVG Repo, www.svgrepo.com, Generator: SVG Repo Mixer Tools -->
<svg width="800px" height="800px" viewBox="0 0 1024 1024" class="icon"  version="1.1" xmlns="http://www.w3.org/2000/svg"><path d="M434.9 605.9L318.4 489.4l158.9-194.8L623.7 441z" fill="#F9C0C0" /><path d="M449.4 623.4L310.2 484.2 488 263.7l174.8 174.8-213.4 184.9zM321 483.6l128.9 128.9L651 438.1 488.6 275.7 321 483.6z" fill="#999999" /><path d="M207.907 619.254l26.233-26.233 193.463 193.462-26.233 26.234z" fill="#F9C0C0" /><path d="M508.9 444.3l15-15c1.5-1.5 1.5-3.8 0-5.3l-25.5-25.5c-1.5-1.5-3.8-1.5-5.3 0l-13.6 13.6c-4.9 4.9-12.8 4.9-17.7 0L448.6 399c-1.5-1.5-3.8-1.5-5.3 0l-25.5 25.5c-1.5 1.5-1.5 3.8 0 5.3l7.7 7.7c2.3 2.3 4.1 7.8 1.8 10.1l-17 17.9c-4.3 4.3-6.5 9.1-2.2 13.4l5.5 5.5c1.9 1.9 2.9 4.2 5.4 4.5l18.7 18.7c2.2 2.2 5.7 2.2 7.9 0l16.8-16.8c4.6-4.6 12-4.6 16.6 0l17.2 17.2c1.5 1.5 3.8 1.5 5.3 0l11.4-11.4 14.1-14.1 4.3-4.3c3.2-3.2 3.2-8.4 0-11.6l-22.4-22.3z" fill="#FFFFFF" /><path d="M499 513.8c-3.3 0-6.3-1.3-8.6-3.6L473 492.9c-0.8-0.8-1.9-1.2-3-1.2s-2.2 0.4-3 1.2l-17.4 17.4c-2.3 2.3-5.4 3.6-8.6 3.6s-6.3-1.3-8.6-3.6l-27.1-27.1c-4.8-4.8-4.8-12.5 0-17.3l17.4-17.4c1.6-1.6 1.6-4.3 0-5.9l-17.4-17.4c-4.8-4.8-4.8-12.5 0-17.3l27.1-27.1c4.8-4.8 12.5-4.8 17.3 0l0.3 0.3-5.7 5.7-0.3-0.3c-0.8-0.8-1.8-1.2-3-1.2s-2.2 0.4-3 1.2l-27.1 27.1c-0.8 0.8-1.2 1.8-1.2 3s0.4 2.2 1.2 3l17.4 17.4c4.8 4.8 4.8 12.5 0 17.3l-17.4 17.4c-0.8 0.8-1.2 1.8-1.2 3 0 1.1 0.4 2.2 1.2 3l27.1 27.1c0.8 0.8 1.8 1.2 3 1.2s2.2-0.4 3-1.2l17.4-17.4c2.3-2.3 5.4-3.6 8.6-3.6 3.3 0 6.3 1.3 8.6 3.6l17.4 17.4c0.8 0.8 1.8 1.2 3 1.2 1.1 0 2.2-0.4 3-1.2l27.1-27.1c1.6-1.6 1.6-4.3 0-6l-17.4-17.4c-4.8-4.8-4.8-12.5 0-17.3l17.4-17.4c1.6-1.6 1.6-4.3 0-6L502 386.5c-0.8-0.8-1.8-1.2-3-1.2-1.1 0-2.2 0.4-3 1.2l-17.4 17.4c-4.8 4.8-12.5 4.8-17.3 0l-4.4-4.4 5.7-5.7 4.4 4.4c1.6 1.6 4.3 1.6 6 0l17.4-17.4c4.8-4.8 12.5-4.8 17.3 0l27.1 27.1c4.8 4.8 4.8 12.5 0 17.3l-17.4 17.4c-1.6 1.6-1.6 4.3 0 5.9l17.4 17.4c4.8 4.8 4.8 12.5 0 17.3l-27.1 27.1c-2.3 2.3-5.4 3.5-8.7 3.5z" fill="#CE0202" /><path d="M621.7 120.3l278.6 278.6-21.6 21.6-3.6 0.2-3.8 3.1-503.7 407.3L189.5 653l407.3-503.6 3.1-3.8 0.2-3.6 21.6-21.7m0-16.4c-3 0-6 1.1-8.3 3.4l-24.9 24.9c-2.1 2.1-3.2 4.9-3.4 7.7l-408.4 505c-4.6 4.6-4.6 12 0 16.6l182.4 182.4c2.3 2.3 5.3 3.4 8.3 3.4s6-1.1 8.3-3.4l505-408.4c2.8-0.1 5.6-1.3 7.7-3.4l24.9-24.9c4.6-4.6 4.6-12 0-16.6L630 107.3c-2.3-2.2-5.3-3.4-8.3-3.4z" fill="#999999" /><path d="M232.7 717.9l70 70-28.2 28.2-93.7 73.1-0.7 0.6-0.7 0.7c-1.5 1.5-3.4 2.4-5.3 2.4-1.2 0-2.1-0.3-2.8-1L129.4 850c-1.6-1.6-1.4-5.3 1.4-8l0.7-0.7 0.6-0.8 72.4-94.3 28.2-28.3m0-21.2l-40.1 40.1 0.1 0.1-72.5 94.5c-8.5 8.5-9.1 21.6-1.4 29.3l41.9 41.9c3.6 3.6 8.4 5.4 13.4 5.4 5.6 0 11.4-2.3 15.9-6.8l93.8-73.2 0.1 0.1L324 788l-91.3-91.3zM593.248 148.234l5.657-5.657 42.85 42.85-5.657 5.657zM667.164 222.158l5.657-5.657 205.2 205.2-5.656 5.657z" fill="#999999" /><path d="M200.115 747.78l5.657-5.657 71.841 71.841-5.657 5.657z" fill="#999999" /><path d="M211.229 752.498l31.108-31.117 5.658 5.656-31.108 31.117zM223.974 765.227l31.108-31.117 5.658 5.656-31.108 31.117zM236.79 778.026l31.108-31.117 5.657 5.656-31.108 31.117zM249.535 790.938l31.108-31.117 5.657 5.656-31.108 31.117zM262.35 803.738l31.108-31.117 5.658 5.656-31.108 31.117z" fill="#999999" /></svg>