<?xml version="1.0" encoding="utf-8"?>
<!-- Uploaded to: SVG Repo, www.svgrepo.com, Generator: SVG Repo Mixer Tools -->
<svg width="800px" height="800px" viewBox="0 0 1024 1024" class="icon"  version="1.1" xmlns="http://www.w3.org/2000/svg"><path d="M404.1 666.5m-215.3 0a215.3 215.3 0 1 0 430.6 0 215.3 215.3 0 1 0-430.6 0Z" fill="#F9C0C0" /><path d="M395.3 888.2c-61.5 0-119.3-23.9-162.7-67.4-43.5-43.5-67.4-101.3-67.4-162.7s23.9-119.3 67.4-162.7c43.5-43.5 101.3-67.4 162.7-67.4s119.3 23.9 162.7 67.4c43.5 43.5 67.4 101.3 67.4 162.7S601.5 777.4 558 820.8c-43.4 43.5-101.2 67.4-162.7 67.4z m0-452.3c-59.3 0-115.1 23.1-157.1 65.1s-65.1 97.7-65.1 157.1 23.1 115.1 65.1 157.1 97.7 65.1 157.1 65.1 115.1-23.1 157.1-65.1 65.1-97.7 65.1-157.1S594.4 543 552.4 501c-41.9-42-97.7-65.1-157.1-65.1z" fill="#999999" /><path d="M395.3 658.1m-41.1 0a41.1 41.1 0 1 0 82.2 0 41.1 41.1 0 1 0-82.2 0Z" fill="#F2F2F2" /><path d="M395.3 703.2c-24.9 0-45.1-20.2-45.1-45.1s20.2-45.1 45.1-45.1 45.1 20.2 45.1 45.1-20.2 45.1-45.1 45.1z m0-82.2c-20.5 0-37.1 16.7-37.1 37.1s16.7 37.1 37.1 37.1 37.1-16.7 37.1-37.1-16.6-37.1-37.1-37.1zM402.5 382.3h-15V264.1L306 114.4h-82.3v-15h91.2l87.6 160.9z" fill="#999999" /><path d="M727.4 495.9H598.2v-15h129.2c3.4 0 6.2-2.8 6.2-6.2V342.2c0-3.4-2.8-6.2-6.2-6.2H408.7c-3.4 0-6.2 2.8-6.2 6.2v51.4h-15v-51.4c0-11.7 9.5-21.2 21.2-21.2h318.7c11.7 0 21.2 9.5 21.2 21.2v132.5c0 11.6-9.5 21.2-21.2 21.2z" fill="#999999" /><path d="M837 655.8H659.3v-15H837c3.4 0 6.2-2.8 6.2-6.2V502.1c0-3.4-2.8-6.2-6.2-6.2H598.2v-15H837c11.7 0 21.2 9.5 21.2 21.2v132.5c0 11.7-9.5 21.2-21.2 21.2z" fill="#999999" /><path d="M843.2 537.5h15v269.6h-15zM230.51 817.465l40.37-40.382 5.657 5.656-40.37 40.381zM514.84 533.233l40.375-40.375 5.657 5.657-40.375 40.375zM231.08 499.356l5.657-5.656 37.97 37.97-5.656 5.658zM516.172 784.453l5.657-5.656 37.971 37.97-5.657 5.658zM395.3 685.2c-14.9 0-27.1-12.1-27.1-27.1 0-14.9 12.1-27.1 27.1-27.1s27.1 12.1 27.1 27.1c0 14.9-12.1 27.1-27.1 27.1z m0-46.2c-10.5 0-19.1 8.6-19.1 19.1s8.6 19.1 19.1 19.1 19.1-8.6 19.1-19.1-8.5-19.1-19.1-19.1z" fill="#999999" /><path d="M850.3 927.9c-35.6 0-64.6-29-64.6-64.6s29-64.6 64.6-64.6 64.6 29 64.6 64.6c0 35.6-29 64.6-64.6 64.6z m0-114.2c-27.4 0-49.6 22.3-49.6 49.6s22.3 49.6 49.6 49.6 49.6-22.3 49.6-49.6-22.3-49.6-49.6-49.6z" fill="#999999" /><path d="M850.3 889c-14.2 0-25.8-11.6-25.8-25.8s11.6-25.8 25.8-25.8 25.8 11.6 25.8 25.8c-0.1 14.3-11.6 25.8-25.8 25.8z m0-43.5c-9.8 0-17.8 8-17.8 17.8s8 17.8 17.8 17.8 17.8-8 17.8-17.8c-0.1-9.8-8-17.8-17.8-17.8z" fill="#999999" /><path d="M395.3 929.4c-72.5 0-140.6-28.2-191.9-79.5-51.2-51.2-79.4-119.3-79.4-191.8s28.2-140.6 79.5-191.9 119.4-79.5 191.9-79.5S536 415 587.2 466.2c51.3 51.3 79.5 119.4 79.5 191.9S638.5 798.7 587.2 850c-51.2 51.2-119.4 79.4-191.9 79.4z m0-527.7c-68.5 0-132.8 26.7-181.3 75.1-48.3 48.4-75 112.8-75 181.3s26.7 132.8 75.1 181.3c48.4 48.4 112.8 75.1 181.3 75.1s132.8-26.7 181.3-75.1c48.4-48.4 75.1-112.8 75.1-181.3s-26.7-132.8-75.1-181.3c-48.5-48.4-112.9-75.1-181.4-75.1z" fill="#CE0202" /></svg>